<svg width="70" height="51" viewBox="0 0 70 51" fill="none" xmlns="http://www.w3.org/2000/svg">
<path d="M50.7163 22.1908C51.1019 17.5191 53.0303 14.0153 56.3085 11.4847C59.5868 8.9542 64.2149 7.20229 70 6.42366V0C59.3939 0.778628 51.2948 3.89314 45.7025 9.34352C40.1102 14.7939 37.4105 21.9962 37.4105 30.7557C37.4105 36.7901 38.7603 41.6565 41.8457 45.355C44.9311 49.2481 48.9807 51 54.1873 51C58.4298 51 62.0937 49.6374 65.1791 46.9122C68.0716 44.187 69.6143 40.6832 69.6143 36.2061C69.6143 32.313 68.4573 29.0038 66.1433 26.6679C63.8292 24.3321 61.1295 22.9695 58.0441 22.1908H50.7163ZM13.3058 22.1908C13.6915 17.5191 15.6198 14.0153 19.0909 11.4847C22.3691 8.9542 26.9972 7.20229 32.7824 6.42366V0C22.1763 0.778628 14.0771 3.89314 8.48485 9.34352C2.69972 14.7939 0 21.9962 0 30.7557C0 36.7901 1.34986 41.6565 4.43526 45.355C7.52066 49.2481 11.5702 51 16.7769 51C21.0193 51 24.6832 49.6374 27.7686 46.9122C30.6612 44.187 32.2039 40.6832 32.2039 36.2061C32.2039 32.313 31.0468 29.0038 28.9256 26.6679C26.6116 24.3321 23.9118 22.9695 20.8264 22.1908H13.3058Z" fill="white"/>
</svg>
