<svg width="580" height="22" viewBox="0 0 580 22" fill="none" xmlns="http://www.w3.org/2000/svg">
<path fill-rule="evenodd" clip-rule="evenodd" d="M387.627 8.09685C451.475 9.35287 515.539 12.3344 577.186 19.5747C578.286 19.7035 578.738 19.9132 578.827 19.9608C579.348 20.2428 579.398 20.5296 579.325 20.7629C579.281 20.9046 578.995 21.5003 577.514 21.5248C576.49 21.5407 569.242 21.0622 566.444 20.9154C553.274 20.2257 540.134 19.3855 527.003 18.4667C497.23 16.3884 467.493 14.4891 437.667 12.69C420.921 11.6791 404.166 10.7687 387.419 9.94592C347.1 9.1563 306.864 9.05575 267.378 9.00454C283.051 9.88902 297.45 10.7477 309.392 11.3709C329.53 12.4211 349.629 13.5678 369.719 14.9158C380.041 15.6069 390.349 16.3346 400.648 17.1461C401.789 17.2373 404.389 17.3673 405.647 17.4749C406.181 17.5188 406.567 17.5773 406.74 17.6153C407.823 17.8546 407.949 18.2911 407.957 18.5097C407.96 18.6425 407.852 19.3637 406.011 19.4579C320.409 23.8999 231.474 13.9325 145.569 18.182C144.562 18.232 143.629 17.8588 143.491 17.3481C143.354 16.839 144.061 16.3833 145.071 16.3334C225.979 12.3312 309.576 20.9416 390.554 18.2447C383.497 17.7206 376.436 17.2301 369.368 16.7562C349.314 15.4108 329.252 14.2668 309.148 13.2174C288.917 12.1632 261.576 10.4139 232.946 9.0215C208.344 9.08382 183.753 9.23041 159.148 9.25907C148.768 9.27027 138.386 9.23439 128.009 9.25071C123.743 9.25632 112.763 9.4555 111.178 9.23707C109.945 9.06628 109.659 8.61388 109.591 8.38875C109.521 8.14507 109.575 7.84577 110.144 7.57302C110.32 7.48679 110.846 7.31206 111.919 7.18484C140.939 3.75966 188.282 5.03053 232.599 7.16496C242.143 7.13921 251.688 7.1269 261.235 7.13984C283.09 7.16716 305.186 7.19892 327.406 7.34639C264.837 4.97567 202.212 3.60467 139.562 2.57231C113.257 2.13944 42.333 1.76151 14.3821 2.31135C14.7184 2.49629 14.9125 2.74646 14.8824 3.01277C14.8226 3.52188 13.9473 3.89602 12.929 3.84657C7.17294 3.56565 3.84653 3.30963 2.53145 3.09977C1.71235 2.96974 1.26918 2.78377 1.06494 2.66434C0.564181 2.37612 0.478167 2.07829 0.585491 1.80051C0.653453 1.62755 0.815257 1.44018 1.18053 1.27311C1.42412 1.15837 2.01683 0.988699 3.02221 0.888319C14.0315 -0.203719 108.222 0.200497 139.542 0.715709C222.308 2.08048 305.026 4.0353 387.627 8.09685ZM134.311 7.38876C150.508 6.69757 169.474 6.79241 189.247 7.32103C179.167 7.35835 169.084 7.38888 158.998 7.40085C150.771 7.41143 142.541 7.39002 134.311 7.38876ZM463.828 12.4339C485.022 13.7596 506.191 15.1485 527.374 16.6284C529.82 16.7982 532.263 16.9662 534.709 17.1327C511.294 15.0919 487.621 13.5704 463.828 12.4339Z" fill="#686764"/>
</svg>
